<svg xmlns="http://www.w3.org/2000/svg" xmlns:xlink="http://www.w3.org/1999/xlink" width="500" zoomAndPan="magnify" viewBox="0 0 375 374.999991" height="500" preserveAspectRatio="xMidYMid meet" version="1.0"><path fill="#52cb1e" d="M 375 187.5 C 375 291.054688 291.054688 375 187.5 375 C 83.945312 375 0 291.054688 0 187.5 C 0 83.945312 83.945312 0 187.5 0 C 291.054688 0 375 83.945312 375 187.5 Z M 375 187.5 " fill-opacity="1" fill-rule="nonzero"/><path fill="#eeefee" d="M 169.425781 205.371094 C 195.179688 231.125 220.417969 241.570312 229.507812 232.480469 L 241.992188 219.996094 C 250.589844 211.398438 264.535156 211.398438 273.132812 219.996094 L 301.160156 248.023438 C 309.757812 256.621094 309.757812 270.566406 301.160156 279.164062 L 279.324219 301 C 258.691406 321.628906 197.671875 294.089844 139.191406 235.609375 C 109.960938 206.371094 90.792969 178.828125 78.402344 152.929688 C 66.011719 127.03125 63.503906 105.789062 73.8125 95.476562 L 95.648438 73.644531 C 104.25 65.042969 118.191406 65.042969 126.789062 73.644531 L 154.8125 101.660156 C 163.414062 110.261719 163.414062 124.199219 154.8125 132.800781 L 142.324219 145.3125 C 133.230469 154.394531 143.671875 179.628906 169.425781 205.371094 Z M 169.425781 205.371094 " fill-opacity="1" fill-rule="nonzero"/></svg>