<svg xmlns="http://www.w3.org/2000/svg" xmlns:xlink="http://www.w3.org/1999/xlink" width="500" zoomAndPan="magnify" viewBox="0 0 375 374.999991" height="500" preserveAspectRatio="xMidYMid meet" version="1.0"><defs><clipPath id="id1"><path d="M 37.5 22.984375 L 366.75 22.984375 L 366.75 352.234375 L 37.5 352.234375 Z M 37.5 22.984375 " clip-rule="nonzero"/></clipPath><clipPath id="id2"><path d="M 15.285156 15.285156 L 352.035156 15.285156 L 352.035156 352.035156 L 15.285156 352.035156 Z M 15.285156 15.285156 " clip-rule="nonzero"/></clipPath></defs><g clip-path="url(#id1)"><path fill="#d41616" d="M 366.75 315.652344 C 366.75 335.855469 350.371094 352.234375 330.167969 352.234375 L 74.082031 352.234375 C 53.878906 352.234375 37.5 335.855469 37.5 315.652344 L 37.5 59.566406 C 37.5 39.363281 53.878906 22.984375 74.082031 22.984375 L 330.167969 22.984375 C 350.371094 22.984375 366.75 39.363281 366.75 59.566406 Z M 366.75 315.652344 " fill-opacity="1" fill-rule="nonzero"/></g><path fill="#d41616" d="M 126.78125 137.472656 C 126.78125 144.605469 122.027344 151.007812 114.527344 151.007812 C 107.027344 151.007812 101.171875 145.519531 90.1875 145.519531 C 82.324219 145.519531 75.179688 149.726562 75.179688 157.410156 C 75.179688 176.25 136.292969 164.175781 136.292969 211.378906 C 136.292969 237.546875 114.699219 253.832031 89.457031 253.832031 C 75.363281 253.832031 45 250.542969 45 233.347656 C 45 226.214844 49.765625 220.351562 57.253906 220.351562 C 65.851562 220.351562 76.105469 227.484375 87.996094 227.484375 C 100.066406 227.484375 106.660156 220.714844 106.660156 211.746094 C 106.660156 190.160156 45.546875 203.148438 45.546875 160.703125 C 45.546875 135.085938 66.59375 119.171875 90.921875 119.171875 C 101.171875 119.171875 126.78125 123.011719 126.78125 137.472656 Z M 139.203125 186.503906 C 139.203125 148.445312 164.820312 119.171875 202.144531 119.171875 C 238.910156 119.171875 265.074219 149.351562 265.074219 186.503906 C 265.074219 224.375 239.648438 253.824219 202.144531 253.824219 C 165.003906 253.824219 139.203125 224.375 139.203125 186.503906 Z M 236.539062 186.503906 C 236.539062 164.359375 225.007812 144.414062 202.144531 144.414062 C 179.269531 144.414062 167.746094 164.359375 167.746094 186.503906 C 167.746094 208.816406 178.902344 228.582031 202.144531 228.582031 C 225.382812 228.574219 236.539062 208.816406 236.539062 186.503906 Z M 349.765625 137.472656 C 349.765625 144.605469 345 151.007812 337.492188 151.007812 C 329.984375 151.007812 324.148438 145.519531 313.164062 145.519531 C 305.308594 145.519531 298.15625 149.726562 298.15625 157.410156 C 298.15625 176.25 359.269531 164.175781 359.269531 211.378906 C 359.269531 237.546875 337.695312 253.832031 312.433594 253.832031 C 298.359375 253.832031 267.976562 250.542969 267.976562 233.347656 C 267.976562 226.214844 272.738281 220.351562 280.25 220.351562 C 288.835938 220.351562 299.097656 227.484375 310.96875 227.484375 C 323.042969 227.484375 329.636719 220.714844 329.636719 211.746094 C 329.636719 190.160156 268.523438 203.148438 268.523438 160.703125 C 268.523438 135.085938 289.566406 119.171875 313.894531 119.171875 C 324.148438 119.171875 349.765625 123.011719 349.765625 137.472656 Z M 349.765625 137.472656 " fill-opacity="1" fill-rule="nonzero"/><g clip-path="url(#id2)"><path fill="#ff1616" d="M 352.035156 314.621094 C 352.035156 335.28125 335.28125 352.035156 314.621094 352.035156 L 52.703125 352.035156 C 32.039062 352.035156 15.285156 335.28125 15.285156 314.621094 L 15.285156 52.703125 C 15.285156 32.039062 32.039062 15.285156 52.703125 15.285156 L 314.621094 15.285156 C 335.28125 15.285156 352.035156 32.039062 352.035156 52.703125 Z M 352.035156 314.621094 " fill-opacity="1" fill-rule="nonzero"/></g><path fill="#ffffff" d="M 106.601562 132.382812 C 106.601562 139.675781 101.738281 146.226562 94.066406 146.226562 C 86.394531 146.226562 80.410156 140.613281 69.175781 140.613281 C 61.128906 140.613281 53.824219 144.914062 53.824219 152.773438 C 53.824219 172.042969 116.328125 159.695312 116.328125 207.972656 C 116.328125 234.734375 94.246094 251.394531 68.425781 251.394531 C 54.011719 251.394531 22.957031 248.027344 22.957031 230.441406 C 22.957031 223.144531 27.828125 217.148438 35.492188 217.148438 C 44.285156 217.148438 54.769531 224.445312 66.929688 224.445312 C 79.277344 224.445312 86.023438 217.523438 86.023438 208.347656 C 86.023438 186.269531 23.519531 199.554688 23.519531 156.140625 C 23.519531 129.941406 45.042969 113.664062 69.921875 113.664062 C 80.410156 113.664062 106.601562 117.59375 106.601562 132.382812 Z M 119.304688 182.527344 C 119.304688 143.605469 145.503906 113.664062 183.679688 113.664062 C 221.285156 113.664062 248.046875 144.53125 248.046875 182.527344 C 248.046875 221.265625 222.042969 251.386719 183.679688 251.386719 C 145.691406 251.386719 119.304688 221.265625 119.304688 182.527344 Z M 218.859375 182.527344 C 218.859375 159.882812 207.066406 139.480469 183.679688 139.480469 C 160.285156 139.480469 148.5 159.882812 148.5 182.527344 C 148.5 205.351562 159.910156 225.566406 183.679688 225.566406 C 207.449219 225.558594 218.859375 205.351562 218.859375 182.527344 Z M 334.664062 132.382812 C 334.664062 139.675781 329.792969 146.226562 322.113281 146.226562 C 314.433594 146.226562 308.464844 140.613281 297.230469 140.613281 C 289.195312 140.613281 281.878906 144.914062 281.878906 152.773438 C 281.878906 172.042969 344.382812 159.695312 344.382812 207.972656 C 344.382812 234.734375 322.316406 251.394531 296.480469 251.394531 C 282.085938 251.394531 251.011719 248.027344 251.011719 230.441406 C 251.011719 223.144531 255.882812 217.148438 263.5625 217.148438 C 272.347656 217.148438 282.84375 224.445312 294.984375 224.445312 C 307.332031 224.445312 314.078125 217.523438 314.078125 208.347656 C 314.078125 186.269531 251.570312 199.554688 251.570312 156.140625 C 251.570312 129.941406 273.097656 113.664062 297.976562 113.664062 C 308.464844 113.664062 334.664062 117.59375 334.664062 132.382812 Z M 334.664062 132.382812 " fill-opacity="1" fill-rule="nonzero"/></svg>