<svg xmlns="http://www.w3.org/2000/svg" xmlns:xlink="http://www.w3.org/1999/xlink" width="500" zoomAndPan="magnify" viewBox="0 0 375 374.999991" height="500" preserveAspectRatio="xMidYMid meet" version="1.0"><defs><clipPath id="id1"><path d="M 2 144 L 373 144 L 373 276.894531 L 2 276.894531 Z M 2 144 " clip-rule="nonzero"/></clipPath><clipPath id="id2"><path d="M 2 82.644531 L 373 82.644531 L 373 239 L 2 239 Z M 2 82.644531 " clip-rule="nonzero"/></clipPath></defs><g clip-path="url(#id1)"><path fill="#3853a1" d="M 370.679688 144.789062 C 370.734375 144.910156 370.773438 145.027344 370.78125 145.128906 C 370.816406 145.753906 370.054688 146.875 367.769531 147.996094 L 213.523438 223.5625 L 190.644531 234.773438 C 187.722656 236.207031 183.394531 237.0625 179.066406 237.0625 C 176.144531 237.0625 173.386719 236.664062 171.300781 235.933594 L 7.335938 177.972656 C 4.929688 177.132812 4.035156 176.109375 4 175.488281 C 3.988281 175.316406 4.046875 175.101562 4.171875 174.867188 L 2.210938 175.550781 L 2.335938 211.84375 C 1.75 213.757812 3.21875 215.660156 6.734375 216.886719 L 170.707031 274.847656 C 176.550781 276.890625 185.878906 276.328125 191.4375 273.605469 L 214.316406 262.394531 C 219.875 259.667969 228.964844 255.210938 234.523438 252.488281 L 368.5625 186.828125 C 371.359375 185.453125 372.6875 183.789062 372.570312 182.207031 L 372.730469 182.195312 L 372.578125 145.296875 L 370.679688 144.789062 " fill-opacity="1" fill-rule="nonzero"/></g><path fill="#ffffff" d="M 166.339844 255.144531 C 166.339844 255.792969 165.796875 256.140625 165.125 255.910156 L 148.082031 250.050781 C 147.71875 249.925781 147.035156 249.652344 146.675781 249.320312 C 146.378906 249.050781 145.964844 248.742188 145.964844 248.449219 L 145.964844 241.246094 C 145.964844 240.882812 146.492188 240.613281 146.898438 240.488281 C 147.21875 240.386719 147.6875 240.375 147.984375 240.476562 L 149.042969 240.828125 L 164.851562 246.335938 C 165.515625 246.566406 166.203125 247.289062 166.203125 247.941406 L 166.339844 255.144531 " fill-opacity="1" fill-rule="nonzero"/><g clip-path="url(#id2)"><path fill="#69b5cd" d="M 25.714844 165.464844 L 184.925781 87.992188 C 187.613281 86.675781 193.667969 86.109375 195.417969 86.109375 C 197.164062 86.109375 200.839844 86.097656 202.722656 86.757812 L 334.292969 133.09375 C 317.292969 136.089844 300.710938 140.992188 284.972656 149.085938 C 276.234375 153.578125 267.726562 158.472656 259.25 163.433594 C 251.308594 168.082031 243.355469 173.496094 234.464844 176.195312 C 216.152344 181.746094 200.488281 174.101562 182.429688 172.421875 C 172.175781 171.46875 161.742188 171.5625 151.722656 174.191406 C 143.257812 176.414062 135.0625 180.0625 126.433594 181.609375 C 105.839844 185.296875 87.519531 178.042969 68.101562 172.308594 C 54.113281 168.179688 40.503906 167.296875 26.003906 168.433594 C 23.789062 168.605469 21.085938 168.816406 18.207031 169.144531 Z M 368.042969 140.949219 L 204.070312 83.464844 C 201.695312 82.636719 198.75 82.71875 195.710938 82.71875 C 191.269531 82.71875 186.640625 83.089844 183.339844 84.707031 L 24.128906 162.472656 L 8.367188 170.074219 L 6.214844 171.070312 C 5.363281 171.484375 4.648438 171.902344 4.066406 172.363281 C 0.859375 174.910156 1.789062 177.960938 6.734375 179.6875 L 170.707031 237.640625 C 173.082031 238.46875 176.03125 238.863281 179.066406 238.863281 C 183.507812 238.863281 188.136719 238.007812 191.4375 236.394531 L 214.3125 225.175781 C 219.871094 222.453125 228.964844 217.996094 234.523438 215.269531 L 368.5625 149.609375 C 374.121094 146.886719 373.886719 142.988281 368.042969 140.949219 " fill-opacity="1" fill-rule="nonzero"/></g><path fill="#69b5cd" d="M 8.519531 197.847656 C 8.519531 196.929688 9.289062 196.441406 10.226562 196.765625 L 33.574219 205.035156 C 34.515625 205.359375 35.289062 206.378906 35.289062 207.296875 C 35.289062 208.21875 34.515625 208.703125 33.574219 208.378906 L 10.226562 200.109375 C 9.289062 199.785156 8.519531 198.769531 8.519531 197.847656 Z M 19.429688 204.097656 L 33.515625 209.273438 C 35.082031 209.820312 36.417969 208.910156 36.488281 207.25 L 36.492188 207.066406 L 36.535156 205.761719 L 36.65625 202.148438 L 32.527344 200.738281 L 7.9375 191.972656 L 7.667969 197.210938 C 7.667969 198.761719 8.957031 200.449219 10.425781 200.964844 L 19.429688 204.097656 " fill-opacity="1" fill-rule="nonzero"/><path fill="#69b5cd" d="M 45.78125 210.757812 C 45.78125 209.839844 46.550781 209.351562 47.492188 209.675781 L 70.84375 217.945312 C 71.785156 218.269531 72.554688 219.289062 72.554688 220.207031 C 72.554688 221.128906 71.785156 221.613281 70.84375 221.289062 L 47.492188 213.019531 C 46.550781 212.695312 45.78125 211.679688 45.78125 210.757812 Z M 56.65625 217.007812 L 70.777344 222.179688 C 72.34375 222.726562 73.683594 221.820312 73.753906 220.160156 L 73.761719 219.976562 L 73.804688 218.667969 L 73.921875 215.054688 C 73.921875 215.054688 45.3125 204.953125 45.183594 204.886719 C 45.003906 205.347656 44.765625 210.121094 44.765625 210.121094 C 44.765625 211.671875 46.136719 213.359375 47.605469 213.871094 L 56.65625 217.007812 " fill-opacity="1" fill-rule="nonzero"/><path fill="#69b5cd" d="M 83.046875 223.667969 C 83.046875 222.75 83.816406 222.257812 84.757812 222.582031 L 108.105469 230.855469 C 109.046875 231.179688 109.820312 232.199219 109.820312 233.117188 C 109.820312 234.039062 109.046875 234.523438 108.105469 234.199219 L 84.757812 225.929688 C 83.816406 225.605469 83.046875 224.585938 83.046875 223.667969 Z M 93.921875 229.917969 L 108.042969 235.089844 C 109.609375 235.636719 110.949219 234.730469 111.015625 233.070312 L 111.027344 232.882812 L 111.070312 231.578125 L 111.191406 227.964844 C 111.191406 227.964844 82.582031 217.863281 82.449219 217.796875 C 82.269531 218.257812 82.03125 223.03125 82.03125 223.03125 C 82.03125 224.582031 83.40625 226.269531 84.871094 226.78125 L 93.921875 229.917969 " fill-opacity="1" fill-rule="nonzero"/><path fill="#69b5cd" d="M 146.703125 248.449219 L 146.703125 241.25 C 146.703125 241.21875 146.9375 241.125 147.148438 241.058594 C 147.257812 241.027344 147.507812 241.007812 147.625 241.007812 C 147.726562 241.007812 147.8125 241.019531 147.882812 241.042969 L 164.679688 246.90625 C 165.140625 247.066406 165.605469 247.585938 165.605469 247.953125 L 165.722656 255.144531 C 165.722656 255.4375 165.515625 255.421875 165.292969 255.34375 L 148.210938 249.484375 C 147.945312 249.390625 147.464844 249.167969 147.148438 248.878906 C 146.894531 248.644531 146.703125 248.488281 146.703125 248.449219 Z M 164.933594 256.476562 C 165.132812 256.546875 165.332031 256.582031 165.527344 256.582031 C 166.347656 256.582031 166.949219 255.976562 166.949219 255.132812 L 166.828125 247.941406 C 166.828125 246.96875 165.933594 246.054688 165.097656 245.773438 L 148.328125 239.910156 C 147.925781 239.769531 147.472656 239.773438 147.019531 239.914062 C 146.308594 240.136719 145.964844 240.644531 145.964844 241.242188 L 145.964844 248.449219 C 145.964844 248.886719 146.109375 249.339844 146.566406 249.761719 C 146.964844 250.125 147.410156 250.453125 147.886719 250.617188 L 164.933594 256.476562 " fill-opacity="1" fill-rule="nonzero"/><path fill="#69b5cd" d="M 120.964844 239.246094 L 137.507812 245.105469 C 138.175781 245.335938 138.71875 244.992188 138.71875 244.335938 C 138.71875 243.6875 138.175781 242.964844 137.507812 242.738281 L 120.964844 236.875 C 120.300781 236.648438 119.753906 236.992188 119.753906 237.644531 C 119.753906 238.296875 120.300781 239.019531 120.964844 239.246094 " fill-opacity="1" fill-rule="nonzero"/><path fill="#69b5cd" d="M 120.964844 233.246094 L 137.507812 239.105469 C 138.175781 239.332031 138.71875 238.988281 138.71875 238.335938 C 138.71875 237.683594 138.175781 236.964844 137.507812 236.734375 L 120.964844 230.875 C 120.300781 230.644531 119.753906 230.992188 119.753906 231.640625 C 119.753906 232.292969 120.300781 233.011719 120.964844 233.246094 " fill-opacity="1" fill-rule="nonzero"/><path fill="#69b5cd" d="M 170.5 267.015625 L 6.527344 209.046875 L 6.925781 207.917969 L 170.902344 265.886719 L 170.5 267.015625 " fill-opacity="1" fill-rule="nonzero"/><path fill="#69b5cd" d="M 179.683594 242.460938 C 179.347656 242.460938 178.570312 242.730469 178.570312 243.0625 L 178.570312 270.675781 C 178.570312 271.003906 179.347656 271.273438 179.683594 271.273438 C 180.015625 271.273438 180.792969 271.003906 180.792969 270.675781 L 180.792969 243.0625 C 180.792969 242.730469 180.015625 242.460938 179.683594 242.460938 " fill-opacity="1" fill-rule="nonzero"/><path fill="#69b5cd" d="M 168.558594 104.828125 L 189.4375 94.585938 C 190.628906 94 192.382812 93.65625 194.136719 93.65625 C 195.34375 93.65625 196.433594 93.8125 197.292969 94.113281 L 263.105469 117.375 C 264.125 117.734375 264.503906 118.179688 264.523438 118.480469 C 264.539062 118.785156 264.214844 119.273438 263.246094 119.746094 L 242.367188 129.988281 C 240.363281 130.976562 236.621094 131.199219 234.511719 130.464844 L 168.703125 107.199219 C 167.683594 106.84375 167.300781 106.394531 167.285156 106.09375 C 167.261719 105.792969 167.589844 105.304688 168.558594 104.828125 Z M 168.300781 108.332031 L 234.117188 131.59375 C 235.101562 131.941406 236.332031 132.121094 237.667969 132.121094 C 239.625 132.121094 241.527344 131.742188 242.894531 131.070312 L 263.777344 120.828125 C 265.542969 119.960938 265.753906 118.941406 265.722656 118.410156 C 265.6875 117.882812 265.359375 116.894531 263.5 116.246094 L 197.691406 92.980469 C 196.703125 92.636719 195.476562 92.457031 194.136719 92.457031 C 192.179688 92.457031 190.273438 92.835938 188.90625 93.507812 L 168.03125 103.75 C 166.261719 104.617188 166.050781 105.636719 166.082031 106.167969 C 166.117188 106.695312 166.445312 107.683594 168.300781 108.332031 " fill-opacity="1" fill-rule="nonzero"/><path fill="#fbfefe" d="M 178.820312 234.898438 C 175.859375 234.898438 172.988281 234.507812 170.667969 233.695312 L 39.203125 187.226562 C 38.890625 187.117188 38.726562 186.769531 38.835938 186.457031 C 38.949219 186.144531 39.289062 185.984375 39.601562 186.09375 L 171.0625 232.566406 C 176.507812 234.46875 185.148438 233.949219 190.324219 231.410156 L 358.871094 148.832031 C 359.167969 148.691406 359.527344 148.808594 359.675781 149.109375 C 359.820312 149.40625 359.695312 149.765625 359.398438 149.910156 L 190.855469 232.488281 C 187.636719 234.0625 183.136719 234.898438 178.820312 234.898438 " fill-opacity="1" fill-rule="nonzero"/></svg>