<svg xmlns="http://www.w3.org/2000/svg" xmlns:xlink="http://www.w3.org/1999/xlink" width="500" zoomAndPan="magnify" viewBox="0 0 375 374.999991" height="500" preserveAspectRatio="xMidYMid meet" version="1.0"><defs><clipPath id="id1"><path d="M 42.339844 37.5 L 337.839844 37.5 L 337.839844 333 L 42.339844 333 Z M 42.339844 37.5 " clip-rule="nonzero"/></clipPath><clipPath id="id2"><path d="M 130 71 L 337.839844 71 L 337.839844 333 L 130 333 Z M 130 71 " clip-rule="nonzero"/></clipPath><clipPath id="id3"><path d="M 77 235 L 303 235 L 303 333 L 77 333 Z M 77 235 " clip-rule="nonzero"/></clipPath></defs><g clip-path="url(#id1)"><path fill="#98c662" d="M 337.90625 185.308594 C 337.90625 222.027344 324.496094 255.644531 302.324219 281.488281 C 295.175781 289.816406 287.101562 297.34375 278.296875 303.890625 C 253.695312 322.226562 223.195312 333.070312 190.160156 333.070312 C 169.042969 333.070312 148.976562 328.644531 130.816406 320.664062 C 120.527344 316.15625 110.867188 310.515625 101.972656 303.890625 C 93.179688 297.320312 85.128906 289.816406 77.980469 281.5 C 55.8125 255.65625 42.386719 222.039062 42.386719 185.308594 C 42.386719 103.699219 108.550781 37.546875 190.160156 37.546875 C 246.152344 37.546875 294.875 68.707031 319.941406 114.636719 C 331.398438 135.625 337.90625 159.707031 337.90625 185.308594 Z M 337.90625 185.308594 " fill-opacity="1" fill-rule="nonzero"/></g><g clip-path="url(#id2)"><path fill="#58b465" d="M 337.90625 185.308594 C 337.90625 222.027344 324.496094 255.644531 302.324219 281.488281 C 295.175781 289.816406 287.101562 297.34375 278.296875 303.890625 C 253.695312 322.226562 223.195312 333.070312 190.160156 333.070312 C 169.042969 333.070312 148.976562 328.644531 130.816406 320.664062 L 197.085938 95.984375 L 231.394531 96.496094 L 208.796875 71.335938 L 319.941406 114.625 C 331.398438 135.625 337.90625 159.707031 337.90625 185.308594 Z M 337.90625 185.308594 " fill-opacity="1" fill-rule="nonzero"/></g><path fill="#fbcb98" d="M 140.453125 137.558594 C 138.980469 135.949219 136.722656 135.183594 135.449219 137.398438 C 133.617188 140.570312 133.804688 144.835938 134.070312 148.34375 C 134.289062 151.183594 134.636719 154.03125 135.378906 156.800781 C 136.015625 159.1875 136.894531 162.476562 139.027344 163.960938 C 139.515625 164.296875 140.175781 164.632812 140.789062 164.757812 C 141.125 164.828125 143.164062 164.863281 142.46875 163.980469 " fill-opacity="1" fill-rule="nonzero"/><path fill="#fbcb98" d="M 239.679688 137.558594 C 241.148438 135.949219 243.410156 135.183594 244.683594 137.398438 C 246.511719 140.570312 246.328125 144.835938 246.0625 148.34375 C 245.839844 151.183594 245.492188 154.03125 244.753906 156.800781 C 244.113281 159.1875 243.234375 162.476562 241.101562 163.960938 C 240.617188 164.296875 239.957031 164.632812 239.34375 164.757812 C 239.007812 164.828125 236.96875 164.863281 237.664062 163.980469 " fill-opacity="1" fill-rule="nonzero"/><path fill="#ecc090" d="M 302.324219 281.488281 C 295.175781 289.816406 287.113281 297.34375 278.296875 303.890625 L 101.972656 303.890625 C 93.167969 297.320312 85.117188 289.816406 77.980469 281.5 C 84.675781 264.4375 98.867188 250.824219 117.167969 245.242188 L 147.632812 233.542969 C 159.402344 229.671875 158.871094 223.164062 158.871094 210.769531 L 158.871094 184.40625 L 221.410156 184.40625 L 221.410156 210.746094 C 221.410156 223.152344 222.035156 230.519531 233.828125 234.375 L 263.171875 245.207031 C 281.472656 250.8125 295.652344 264.425781 302.324219 281.488281 Z M 302.324219 281.488281 " fill-opacity="1" fill-rule="nonzero"/><g clip-path="url(#id3)"><path fill="#ffdd3c" d="M 263.171875 245.207031 L 239.074219 236.3125 C 214.714844 261.066406 160.515625 262.90625 142.46875 235.523438 L 117.167969 245.242188 C 98.867188 250.824219 84.675781 264.4375 77.980469 281.5 C 105.074219 313.0625 145.269531 333.070312 190.148438 333.070312 C 235.023438 333.070312 275.21875 313.0625 302.3125 281.488281 C 295.652344 264.425781 281.460938 250.8125 263.171875 245.207031 Z M 263.171875 245.207031 " fill-opacity="1" fill-rule="nonzero"/></g><path fill="#fbcb98" d="M 239.933594 132.183594 C 239.804688 96.878906 218.144531 76.976562 190.191406 76.976562 C 190.179688 76.976562 190.191406 82.445312 190.191406 76.976562 C 190.191406 76.964844 190.203125 76.976562 190.191406 76.976562 C 162.253906 76.976562 140.578125 96.878906 140.453125 132.183594 C 140.394531 148.285156 140.949219 158.886719 142.582031 170.574219 C 147.667969 206.898438 181.109375 217.082031 190.136719 217.082031 C 201.199219 217.082031 232.707031 206.898438 237.789062 170.574219 C 239.433594 158.886719 239.992188 148.285156 239.933594 132.183594 Z M 239.933594 132.183594 " fill-opacity="1" fill-rule="nonzero"/><path fill="#092838" d="M 243.292969 128.535156 C 243.246094 126.785156 243.164062 125.074219 243.050781 123.429688 C 242.597656 116.976562 241 111.078125 238.925781 104.988281 C 237.964844 102.148438 237.523438 96.460938 235.4375 94.238281 C 228.453125 86.777344 224.863281 99.738281 222.847656 103.96875 C 221.480469 106.839844 223.078125 114.324219 223.425781 117.472656 C 223.960938 122.246094 225.082031 126.730469 227.085938 131.097656 C 230.992188 139.597656 237.640625 145.273438 237.003906 155.539062 C 238.058594 156.058594 239.378906 155.214844 239.804688 154.113281 C 242.75 146.550781 243.5 137.0625 243.292969 128.535156 Z M 243.292969 128.535156 " fill-opacity="1" fill-rule="nonzero"/><path fill="#092838" d="M 145.652344 145.296875 C 147.03125 143.882812 148.769531 142.726562 150.171875 141.300781 C 155.011719 136.414062 153.230469 130.285156 156.507812 124.910156 C 158.269531 122.027344 162.078125 120.101562 165.101562 121.585938 C 168.589844 123.300781 169.308594 128.386719 172.78125 130.113281 C 173.753906 130.597656 174.855469 130.761719 175.933594 130.875 C 185.210938 131.894531 194.804688 129.84375 202.855469 125.117188 C 201.671875 126.878906 201.707031 129.371094 202.933594 131.097656 C 214.484375 128.097656 225.023438 121.285156 232.496094 111.984375 C 238.3125 104.742188 236.179688 96.160156 231.476562 88.746094 C 229.9375 86.324219 228.152344 83.984375 225.753906 82.398438 C 222.835938 80.464844 219.269531 79.816406 215.816406 79.203125 C 212.269531 78.574219 208.726562 77.949219 205.171875 77.324219 C 206.480469 75.632812 208.019531 74.128906 209.734375 72.851562 C 201.695312 70.339844 193.066406 73.851562 184.632812 73.570312 C 184.910156 71.253906 186.058594 69.054688 187.808594 67.5 C 182.117188 67.59375 176.453125 68.566406 171.058594 70.316406 C 163.097656 72.886719 155.683594 77.128906 149.453125 82.710938 C 146.71875 85.167969 143.3125 88.097656 141.914062 91.539062 C 140.40625 95.234375 139.457031 99.703125 138.644531 103.632812 C 134.914062 121.96875 137.859375 140.769531 138.367188 159.246094 C 138.390625 160.03125 138.460938 160.9375 139.085938 161.421875 C 139.769531 161.964844 140.847656 161.699219 141.449219 161.0625 C 142.050781 160.425781 142.292969 159.535156 142.46875 158.675781 C 142.757812 157.273438 142.929688 155.851562 142.988281 154.425781 C 143.082031 152.226562 142.917969 149.929688 143.8125 147.902344 C 144.242188 146.917969 144.890625 146.074219 145.652344 145.296875 Z M 145.652344 145.296875 " fill-opacity="1" fill-rule="nonzero"/></svg>